<?xml version="1.0" standalone="no"?>
<!DOCTYPE svg PUBLIC "-//W3C//DTD SVG 20010904//EN"
 "http://www.w3.org/TR/2001/REC-SVG-20010904/DTD/svg10.dtd">
<svg version="1.0" xmlns="http://www.w3.org/2000/svg"
 width="80.000000pt" height="80.000000pt" viewBox="0 0 80.000000 80.000000"
 preserveAspectRatio="xMidYMid meet">
<metadata>
Created by potrace 1.14, written by Peter Selinger 2001-2017
</metadata>
<g transform="translate(0.000000,80.000000) scale(0.100000,-0.100000)"
fill="#000000" stroke="none">
<path d="M298 770 c-126 -39 -222 -140 -258 -270 -7 -25 -19 -59 -26 -77 -18
-39 -18 -58 -1 -75 8 -7 20 -31 27 -53 13 -44 70 -145 81 -145 4 0 6 -25 6
-55 -1 -81 13 -92 100 -77 43 8 87 9 118 4 93 -15 160 -5 245 38 135 69 211
201 206 358 -7 252 -255 427 -498 352z"/>
</g>
</svg>
